<svg width="800" height="600" xmlns="http://www.w3.org/2000/svg">

 <g>
  <title>Layer 1</title>
  <path stroke-width="5" d="m64.99999,130.79999c0,1 0.71412,2.21167 3,5c3.58638,4.37468 8.15533,9.87389 13,16c3.10148,3.92184 10,13 17,20c4,4 9.43797,11.62042 16,17c2.78832,2.28587 8.00001,8 14,14c2.99999,3 9.35123,9.58145 12.99999,13c6.728,6.3035 9,10 15,16c3,3 7,9 9,11c3,3 6.87137,9.09979 10,13c5.76892,7.19162 8.93788,11.04733 12,15c7.84283,10.12375 12.07858,13.93814 16,19c6.12422,7.9053 8.83522,8.77374 11,14c0.76537,1.84775 1.4588,3.69345 2,5c0.38269,0.92389 0.61731,3.07611 1,4c0.5412,1.30655 1,3 1,4c0,1 0,2 0,3c0,1 0.68925,2.08026 0,5c-0.51375,2.17624 -1.71931,4.56509 -4,8c-2.76573,4.16541 -4.72398,6.22272 -8,10c-3.70638,4.2735 -8.22733,7.78491 -12,12c-4.27039,4.77115 -7.78491,9.22733 -12,13c-4.77115,4.27039 -9.05664,7.91754 -12,10c-4.0817,2.88785 -7.37535,6.94003 -13,10c-2.77782,1.5112 -7.79626,3.16125 -11,7c-1.43275,1.71674 -4.48692,4.08051 -7,6c-2.86536,2.18854 -5.48692,5.08051 -8,7c-2.86536,2.18854 -5.51928,4.5582 -7.99999,8c-1.30745,1.814 -4.56725,5.28326 -6,7c-3.20374,3.83875 -5.93163,5.07339 -7,6c-3.77727,3.276 -4.39099,5.7695 -8,8c-2.68999,1.66251 -3.41886,3.41885 -5,5c-1.58114,1.58115 -2.4588,1.69345 -3,3c-0.38268,0.92389 0,2 -1,2l0,1l0,0" id="svg_4" stroke="#7f00ff" fill="none"/>
  <path stroke-width="5" d="m732,135.79999c-2,2 -2.52014,3.32367 -4,5c-2.38617,2.703 -3.91827,4.11214 -8,7c-2.94336,2.08247 -7.88049,5.25194 -14,8c-4.91254,2.20607 -10.30359,4.37257 -17,8c-3.17029,1.71735 -7.50739,5.70894 -13,9c-6.53284,3.91434 -12.03265,7.95189 -15,10c-7.07971,4.88649 -12.22272,9.72398 -16,13c-4.2735,3.70638 -10.91144,9.09268 -13,11c-5.76727,5.26675 -8.47729,7.47733 -14,13c-5.52271,5.52267 -7.59009,9.31812 -10,12c-5.22021,5.80942 -7.28027,7.67285 -12,12c-2.65765,2.43658 -8.05664,5.91754 -11,8c-4.08173,2.88785 -5,4 -8,6c-3,2 -4.48694,3.08051 -7,5c-2.86536,2.18854 -4.5528,4.10556 -5,5c-2.23608,4.47214 -5.18604,3.69254 -7,5c-1.14728,0.8269 -5,4 -5,4c0,1 -1.58578,0.58578 -3,2c-0.70709,0.70709 1.10339,2.90634 2,4c2.28589,2.78833 5,8 11,14c7,7 13.23438,12.70862 22,20c9.25751,7.70056 17.81311,14.28775 30,22c9.85443,6.23621 21,13 31,19c10,6 18.03052,9.94598 34,19c7.01349,3.97632 12.08746,6.79395 17,9c2.03986,0.91602 4.07611,1.61731 5,2c1.30658,0.5412 2,1 3,2c1,1 2,1 4,3c2,2 4.70544,4.34619 7,6c1.81396,1.30746 2.29291,1.29291 3,2c0.70709,0.70709 1.29291,0.29291 2,1c0.70709,0.70709 0.29291,1.29291 1,2c0.70709,0.70709 1,1 2,3c1,2 2.724,4.22272 6,8c1.85321,2.13675 3.9176,2.38687 5,5c0.38269,0.92389 1,2 2,3c1,1 1.4588,1.69345 2,3c0.38269,0.92389 1,1 1,2l0,1l1,1" id="svg_6" stroke="#7f00ff" fill="none"/>
  <path d="m228.99998,448.79999c1,0 2,0 3,0c1,0 2,0 3,0c2,0 4,0 6,0c2,0 4,0 6,0c2,0 3.88152,-0.19028 7,-2c1.93399,-1.12234 5.03874,-0.51944 8,-1c3.12144,-0.50653 6,-1 9,-1c3,0 6,0 10,0c4,0 7,0 13,0c7,0 14.05244,0.85529 21,0c8.18443,-1.00754 15.95332,-2.49902 24.00002,-3c3.99228,-0.24854 11.09662,0.46625 17,-1c6.13806,-1.52454 8.92578,-2.49756 14,-3c4.97568,-0.49268 8.16049,0.37851 14,-1c4.35251,-1.0275 11,-2 19,-2c4,0 14,0 19,0c10,0 14.95847,0.49924 24,1c4.99234,0.27649 9.96262,0.49939 20,1c4.9938,0.24905 16,1 21,1c6,0 16,0 21,0c4,0 12,0 15,0c3,0 7,0 8,0c2,0 3,0 5,0c1,0 2,0 3,0c3,0 5,0 7,0c2,0 3.88495,1.27432 6,2c4.82303,1.65482 7.03873,1.51944 10,2c3.12143,0.50653 6.02582,1.67963 8,2c3.12143,0.50653 5.69342,1.4588 7,2c0.92389,0.38269 2,0 3,0c1,0 2,0 4,0c2,0 4.02582,-0.32037 6,0c3.12146,0.50653 5,1 7,1c1,0 1.29291,0.29291 2,1c0.70709,0.70709 1.29291,0.29291 2,1c0.70709,0.70709 1.29291,0.29291 2,1c0.70709,0.70709 0.61731,1.07611 1,2c0.5412,1.30655 2,1 2,2c0,1 0.61731,2.07611 1,3c0.5412,1.30655 1.4588,1.69345 2,3c0.38269,0.92389 1,2 1,3l1,0l0,1l0,1" id="svg_7" stroke-width="5" stroke="#000" fill="none"/>
  <path id="svg_11" d="m89.99999,113.99999" opacity="NaN" stroke-width="5" stroke="#000" fill="none"/>
  <text transform="matrix(7.03016 0 0 4.43908 -1616.01 -408.307)" stroke="#000" xml:space="preserve" text-anchor="start" font-family="'Urbanist'" font-size="24" id="svg_12" y="122.1102" x="263.15823" stroke-width="0" fill="#ff7f00">sayt</text>
 </g>
</svg>